# xmcd
#
# Track frame offsets:
# 150
# 9372
# 19382
# 34892
# 52997
# 66792
# 81947
# 91695
# 103880
# 116837
# 126429
# 143377
# 151122
# 160500
# 173625
# 185945
# 202247
# 216425
# 230685
# 242540
#
# Disc length: 3368 seconds
#
#
# Revision: 0
# Processed by: cddbd v1.5.1PL0 Copyright (c) Steve Scherf et al.
# Submitted via: FreeRIP 2.93 
#
DISCID=130d2614
DTITLE=Mix2 - Toulavy dalky
DYEAR=1900
DGENRE=Country
TTITLE0=Tramp
TTITLE1=Cestou starych vlku
TTITLE2=Blackie boys
TTITLE3=Svatojanske proudy
TTITLE4=Dohasly ohne
TTITLE5=Ja a muj kun
TTITLE6=Vlak do Zlatodolu
TTITLE7=Plameny
TTITLE8=Stromy
TTITLE9=Stastnej tulak
TTITLE10=Vodjizdim
TTITLE11=Ascalona
TTITLE12=Rikatado
TTITLE13=Stary pistolnik
TTITLE14=Reka huci
TTITLE15=Svita
TTITLE16=Smes Mottla
TTITLE17=Mosty
TTITLE18=Hraz
TTITLE19=Vlajka vzhuru leti
EXTD=
EXTT0=Nedved
EXTT1=Setleri
EXTT2=Setleri
EXTT3=Setleri
EXTT4=Setleri
EXTT5=Setleri
EXTT6=Taxmani
EXTT7=W-Danek
EXTT8=W-Danek
EXTT9=Hoboes
EXTT10=Hoboes
EXTT11=Rackove
EXTT12=Rackove
EXTT13=Westmani
EXTT14=Mustangove
EXTT15=Taxmeni
EXTT16=Mustangove
EXTT17=Nedved
EXTT18=Brontosauri
EXTT19=Brontosauri
PLAYORDER=
